# File exported by Houdini 19.5.403 (www.sidefx.com)
# 8 points
# 36 vertices
# 12 primitives
# Bounds: [-0.5, -0.5, -0.5] to [0.5, 0.5, 0.5]
v 0.5 -0.5 0.5
v -0.5 -0.5 0.5
v 0.5 0.5 0.5
v -0.5 0.5 0.5
v -0.5 -0.5 -0.5
v 0.5 -0.5 -0.5
v -0.5 0.5 -0.5
v 0.5 0.5 -0.5
vt 0.5 -0.5 0.5
vt -0.5 0.5 0.5
vt -0.5 -0.5 0.5
vt 0.5 0.5 0.5
vt 0.49999997 -0.5 0.50000006
vt -0.50000006 0.5 0.49999997
vt -0.50000006 -0.5 0.49999997
vt 0.49999997 0.5 0.50000006
vt -0.49999997 0.49999997 0.5
vt 0.49999997 -0.5 0.49999997
vt 0.49999997 0.49999997 0.5
vt -0.49999997 -0.5 0.49999997
vt 0.49999997 -0.49999997 0.5
vt -0.49999997 0.5 0.49999997
vt -0.49999997 -0.49999997 0.5
vt 0.49999997 0.5 0.49999997
vt -0.5 0.49999997 0.49999997
vt -0.5 -0.49999997 0.49999997
vt 0.5 -0.49999997 0.49999997
vt 0.5 0.49999997 0.49999997
vn 0 0 1
vn 0 0 1
vn 0 0 1
vn 0 0 1
vn 0 0 1
vn 0 0 1
vn 0 0 -1
vn 0 0 -1
vn 0 0 -1
vn 0 0 -1
vn 0 0 -1
vn 0 0 -1
vn 0 1 0
vn 0 1 0
vn 0 1 0
vn 0 1 0
vn 0 1 0
vn 0 1 0
vn 0 -1 0
vn 0 -1 0
vn 0 -1 0
vn 0 -1 0
vn 0 -1 0
vn 0 -1 0
vn 1 0 0
vn 1 0 0
vn 1 0 0
vn 1 0 0
vn 1 0 0
vn 1 0 0
vn -1 0 0
vn -1 0 0
vn -1 0 0
vn -1 0 0
vn -1 0 0
vn -1 0 0
f 1/1/1 4/2/2 2/3/3
f 1/1/4 3/4/5 4/2/6
f 5/5/7 8/6/8 6/7/9
f 5/5/10 7/8/11 8/6/12
f 7/9/13 3/10/14 8/11/15
f 7/9/16 4/12/17 3/10/18
f 6/13/19 2/14/20 5/15/21
f 6/13/22 1/16/23 2/14/24
f 6/13/25 3/17/26 1/18/27
f 6/13/28 8/11/29 3/17/30
f 2/19/31 7/9/32 5/15/33
f 2/19/34 4/20/35 7/9/36
